<svg xmlns="http://www.w3.org/2000/svg" viewBox="0 0 576 512"><!--!Font Awesome Free 6.5.1 by @fontawesome - https://fontawesome.com License - https://fontawesome.com/license/free Copyright 2024 Fonticons, Inc.--><path d="M48 0C21.5 0 0 21.5 0 48V368c0 26.5 21.5 48 48 48H64c0 53 43 96 96 96s96-43 96-96H320c0 53 43 96 96 96s96-43 96-96h32c17.7 0 32-14.3 32-32s-14.3-32-32-32V288 256 237.3c0-17-6.7-33.3-18.7-45.3L512 178.7l-5.3-5.3C496.7 163.3 480.4 160 464 160H448V128c0-53-43-96-96-96H128c-17.7 0-32 14.3-32 32V192H48c-8.8 0-16 7.2-16 16V368c0 8.8 7.2 16 16 16H64c0-17.7 14.3-32 32-32s32 14.3 32 32H320c0-17.7 14.3-32 32-32s32 14.3 32 32h32c0-17.7-14.3-32-32-32V288H384V368c0 8.8 7.2 16 16 16h32c8.8 0 16-7.2 16-16V288 256 237.3L407.2 192H128V64H352c17.7 0 32 14.3 32 32v64H464c5.9 0 11.6 1.1 16.9 3.2L448 197.3V224H384V197.3l-16-16H352V128c0-35.3-28.7-64-64-64H128V48c0-8.8-7.2-16-16-16H48zM416 400a32 32 0 1 1 0 64 32 32 0 1 1 0-64zM160 432a32 32 0 1 1 64 0 32 32 0 1 1 -64 0zm112-48c-8.8 0-16 7.2-16 16v48c0 8.8 7.2 16 16 16s16-7.2 16-16V400c0-8.8-7.2-16-16-16zm-64-16c0 8.8 7.2 16 16 16s16-7.2 16-16s-7.2-16-16-16s-16 7.2-16 16z" fill="#3D6FD1"/></svg>
