<svg width="100" height="134" viewBox="0 0 100 134" fill="none" xmlns="http://www.w3.org/2000/svg">
<g clip-path="url(#clip0_109_80)">
<path d="M12.5 0C5.59896 0 0 5.62695 0 12.5625V121.438C0 128.373 5.59896 134 12.5 134H37.5V113.062C37.5 106.127 43.099 100.5 50 100.5C56.901 100.5 62.5 106.127 62.5 113.062V134H87.5C94.401 134 100 128.373 100 121.438V12.5625C100 5.62695 94.401 0 87.5 0H12.5ZM16.6667 62.8125C16.6667 60.5094 18.5417 58.625 20.8333 58.625H29.1667C31.4583 58.625 33.3333 60.5094 33.3333 62.8125V71.1875C33.3333 73.4906 31.4583 75.375 29.1667 75.375H20.8333C18.5417 75.375 16.6667 73.4906 16.6667 71.1875V62.8125ZM45.8333 58.625H54.1667C56.4583 58.625 58.3333 60.5094 58.3333 62.8125V71.1875C58.3333 73.4906 56.4583 75.375 54.1667 75.375H45.8333C43.5417 75.375 41.6667 73.4906 41.6667 71.1875V62.8125C41.6667 60.5094 43.5417 58.625 45.8333 58.625ZM66.6667 62.8125C66.6667 60.5094 68.5417 58.625 70.8333 58.625H79.1667C81.4583 58.625 83.3333 60.5094 83.3333 62.8125V71.1875C83.3333 73.4906 81.4583 75.375 79.1667 75.375H70.8333C68.5417 75.375 66.6667 73.4906 66.6667 71.1875V62.8125ZM20.8333 25.125H29.1667C31.4583 25.125 33.3333 27.0094 33.3333 29.3125V37.6875C33.3333 39.9906 31.4583 41.875 29.1667 41.875H20.8333C18.5417 41.875 16.6667 39.9906 16.6667 37.6875V29.3125C16.6667 27.0094 18.5417 25.125 20.8333 25.125ZM41.6667 29.3125C41.6667 27.0094 43.5417 25.125 45.8333 25.125H54.1667C56.4583 25.125 58.3333 27.0094 58.3333 29.3125V37.6875C58.3333 39.9906 56.4583 41.875 54.1667 41.875H45.8333C43.5417 41.875 41.6667 39.9906 41.6667 37.6875V29.3125ZM70.8333 25.125H79.1667C81.4583 25.125 83.3333 27.0094 83.3333 29.3125V37.6875C83.3333 39.9906 81.4583 41.875 79.1667 41.875H70.8333C68.5417 41.875 66.6667 39.9906 66.6667 37.6875V29.3125C66.6667 27.0094 68.5417 25.125 70.8333 25.125Z" fill="#F1F1F1" fill-opacity="0.8"/>
</g>
<defs>
<clipPath id="clip0_109_80">
<rect width="50" height="67" fill="white" transform="scale(2)"/>
</clipPath>
</defs>
</svg>
