<svg width="179" height="176" viewBox="0 0 179 176" fill="none" xmlns="http://www.w3.org/2000/svg">
<g clip-path="url(#clip0_16_58)">
<path fill-rule="evenodd" clip-rule="evenodd" d="M1.69434 73.6361H57.6287L84.2958 99.5807V174.306H1.69434V73.6361Z" stroke="#3D6FD1" stroke-width="1.69182" stroke-miterlimit="22.9256" stroke-linecap="round" stroke-linejoin="round"/>
<path d="M76.9641 114.036L57.6443 114.031M76.9641 126.553H57.6443M77.1065 139.075L8.33984 139.07M77.1065 151.592L8.33984 151.587M77.1065 164.114L8.33984 164.109M57.6443 99.5756L57.629 73.6361L84.2961 99.5807L57.6443 99.5756ZM8.98604 81.5075H51.5792V126.68H8.98604V81.5075Z" stroke="#3D6FD1" stroke-width="1.69182" stroke-miterlimit="22.9256" stroke-linecap="round" stroke-linejoin="round"/>
<path d="M17.1528 119.119V115.176C17.1528 111.446 20.2057 108.393 23.9354 108.393H36.6253C40.3549 108.393 43.4078 111.446 43.4078 115.176V119.119H23.5181M30.2803 89.0685C34.3763 89.0685 37.6938 92.386 37.6938 96.482C37.6938 100.578 34.3763 103.895 30.2803 103.895C26.1894 103.895 22.8669 100.578 22.8669 96.482C22.8669 92.386 26.1843 89.0685 30.2803 89.0685ZM136.659 70.9902H155.475V89.8114H136.659V70.9902ZM136.659 100.863H155.475V119.679H136.659V100.863Z" stroke="#3D6FD1" stroke-width="1.69182" stroke-miterlimit="22.9256" stroke-linecap="round" stroke-linejoin="round"/>
<path d="M63.1753 71.1175V55.797H166.893V134.786H93.8163" stroke="#3D6FD1" stroke-width="1.69182" stroke-miterlimit="22.9256" stroke-linecap="round" stroke-linejoin="round"/>
<path d="M53.1616 59.0839L115.034 36.6348L176.906 59.0839M106.206 134.134V100.863H125.022V134.134M74.593 70.9902H93.4091V89.8114H90.5241M90.29 100.863H93.4091V119.679H90.29M115.075 26.9164H149.847L131.031 14.3028L149.847 1.69434H115.075M115.034 36.2227V1.85207M107.168 152.187L115.614 144.606L124.06 152.187M106.206 70.9902H125.022V89.8114H106.206V70.9902Z" stroke="#3D6FD1" stroke-width="1.69182" stroke-miterlimit="22.9256" stroke-linecap="round" stroke-linejoin="round"/>
<path d="M93.3374 165.773L115.613 165.859V146.372" stroke="#3D6FD1" stroke-width="1.69182" stroke-miterlimit="22.9256" stroke-linecap="round" stroke-linejoin="round"/>
</g>
<defs>
<clipPath id="clip0_16_58">
<rect width="89.2976" height="88" fill="white" transform="scale(2)"/>
</clipPath>
</defs>
</svg>
