<svg width="38" height="50" viewBox="0 0 38 50" fill="none" xmlns="http://www.w3.org/2000/svg">
<g clip-path="url(#clip0_28_155)">
<path d="M21.0645 48.75C26.0742 42.4805 37.5 27.2852 37.5 18.75C37.5 8.39844 29.1016 0 18.75 0C8.39844 0 0 8.39844 0 18.75C0 27.2852 11.4258 42.4805 16.4355 48.75C17.6367 50.2441 19.8633 50.2441 21.0645 48.75ZM18.75 12.5C20.4076 12.5 21.9973 13.1585 23.1694 14.3306C24.3415 15.5027 25 17.0924 25 18.75C25 20.4076 24.3415 21.9973 23.1694 23.1694C21.9973 24.3415 20.4076 25 18.75 25C17.0924 25 15.5027 24.3415 14.3306 23.1694C13.1585 21.9973 12.5 20.4076 12.5 18.75C12.5 17.0924 13.1585 15.5027 14.3306 14.3306C15.5027 13.1585 17.0924 12.5 18.75 12.5Z" fill="black"/>
</g>
<defs>
<clipPath id="clip0_28_155">
<rect width="18.75" height="25" fill="white" transform="scale(2)"/>
</clipPath>
</defs>
</svg>
