<svg width="46" height="46" viewBox="0 0 46 46" fill="none" xmlns="http://www.w3.org/2000/svg">
<g clip-path="url(#clip0_28_161)">
<path d="M23 0C29.1 0 34.9501 2.42321 39.2635 6.73654C43.5768 11.0499 46 16.9 46 23C46 29.1 43.5768 34.9501 39.2635 39.2635C34.9501 43.5768 29.1 46 23 46C16.9 46 11.0499 43.5768 6.73654 39.2635C2.42321 34.9501 0 29.1 0 23C0 16.9 2.42321 11.0499 6.73654 6.73654C11.0499 2.42321 16.9 0 23 0ZM20.8438 10.7812V23C20.8438 23.7188 21.2031 24.3926 21.8051 24.7969L30.4301 30.5469C31.4184 31.2117 32.757 30.9422 33.4219 29.9449C34.0867 28.9477 33.8172 27.618 32.8199 26.9531L25.1562 21.85V10.7812C25.1562 9.58633 24.1949 8.625 23 8.625C21.8051 8.625 20.8438 9.58633 20.8438 10.7812Z" fill="black"/>
</g>
<defs>
<clipPath id="clip0_28_161">
<rect width="23" height="23" fill="white" transform="scale(2)"/>
</clipPath>
</defs>
</svg>
