<svg width="46" height="46" viewBox="0 0 46 46" fill="none" xmlns="http://www.w3.org/2000/svg">
<path d="M4.3125 5.75C1.93164 5.75 0 7.68164 0 10.0625C0 11.4191 0.637891 12.6949 1.725 13.5125L21.275 28.175C22.2992 28.9387 23.7008 28.9387 24.725 28.175L44.275 13.5125C45.3621 12.6949 46 11.4191 46 10.0625C46 7.68164 44.0684 5.75 41.6875 5.75H4.3125ZM0 15.8125V34.5C0 37.6715 2.57852 40.25 5.75 40.25H40.25C43.4215 40.25 46 37.6715 46 34.5V15.8125L26.45 30.475C24.4016 32.0113 21.5984 32.0113 19.55 30.475L0 15.8125Z" fill="black"/>
</svg>
