<svg width="46" height="46" viewBox="0 0 46 46" fill="none" xmlns="http://www.w3.org/2000/svg">
<g clip-path="url(#clip0_28_157)">
<path d="M31.1848 2.21023C31.8766 0.539135 33.7005 -0.350318 35.4434 0.125854L43.3497 2.2821C44.913 2.71335 46.0001 4.13289 46.0001 5.75007C46.0001 27.9774 27.9774 46.0001 5.75007 46.0001C4.13289 46.0001 2.71335 44.913 2.2821 43.3497L0.125854 35.4434C-0.350318 33.7005 0.539135 31.8766 2.21023 31.1848L10.8352 27.5911C12.2997 26.9802 13.9977 27.4024 14.995 28.6333L18.6247 33.0626C24.9497 30.0708 30.0708 24.9497 33.0626 18.6247L28.6333 15.004C27.4024 13.9977 26.9802 12.3087 27.5911 10.8442L31.1848 2.21921V2.21023Z" fill="black"/>
</g>
<defs>
<clipPath id="clip0_28_157">
<rect width="23" height="23" fill="white" transform="scale(2)"/>
</clipPath>
</defs>
</svg>
