<svg width="34" height="41" viewBox="0 0 34 41" fill="none" xmlns="http://www.w3.org/2000/svg">
<g clip-path="url(#clip0_28_153)">
<path d="M17 20.4C19.5764 20.4 22.0473 19.3254 23.869 17.4125C25.6908 15.4996 26.7143 12.9052 26.7143 10.2C26.7143 7.49479 25.6908 4.90038 23.869 2.98751C22.0473 1.07464 19.5764 0 17 0C14.4236 0 11.9527 1.07464 10.131 2.98751C8.30918 4.90038 7.28571 7.49479 7.28571 10.2C7.28571 12.9052 8.30918 15.4996 10.131 17.4125C11.9527 19.3254 14.4236 20.4 17 20.4ZM13.5317 24.225C6.05625 24.225 0 30.5841 0 38.4333C0 39.7402 1.00938 40.8 2.25402 40.8H31.746C32.9906 40.8 34 39.7402 34 38.4333C34 30.5841 27.9438 24.225 20.4683 24.225H13.5317Z" fill="black" fill-opacity="0.3"/>
</g>
<defs>
<clipPath id="clip0_28_153">
<rect width="17" height="20.4" fill="white" transform="scale(2)"/>
</clipPath>
</defs>
</svg>
